# xmcd
#
# Track frame offsets: 
#        150
#        19562
#        43715
#        65800
#        88292
#        124250
#        137362
#        158745
#        189157
#        214277
#
# Disc length: 3423 seconds
#
# Revision: 6
# Processed by: cddbd v1.5.2PL0 Copyright (c) Steve Scherf et al.
# Submitted via: ExactAudioCopyFreeDBPlugin 1.0
#
DISCID=890d5d0a
DTITLE=Various Artist - A Tribute To Stevie Ray Vaughan
DYEAR=1996
DGENRE=Blues
TTITLE0=Bonnie Raitt - Pride And Joy
TTITLE1=Jimmie Vaughan - Texas Food
TTITLE2=B.B. King - Telephone Song
TTITLE3=Buddy Guy - Long Way From Home
TTITLE4=Eric Clapton - Ain't Gone 'n Give Up On Your Love
TTITLE5=Robert Cray - Love Struck Baby
TTITLE6=Dr. John - Cold Shot
TTITLE7=Raitt, Vaughan, King, Guy, Clapton, Cray, John and Art Neville /
TTITLE7=Six Strings Down
TTITLE8=Raitt, Vaughan, King, Guy, Clapton, Cray, John and Art Neville /
TTITLE8=Tick Tock
TTITLE9=Raitt, Vaughan, King, Guy, Clapton, Cray, John and Art Neville /
TTITLE9=SRV Shuffle
EXTD=
EXTT0=
EXTT1=
EXTT2=
EXTT3=
EXTT4=
EXTT5=
EXTT6=
EXTT7=
EXTT8=
EXTT9=
PLAYORDER=
